<?xml version="1.0" standalone="no"?>
<!DOCTYPE svg PUBLIC "-//W3C//DTD SVG 20010904//EN"
 "http://www.w3.org/TR/2001/REC-SVG-20010904/DTD/svg10.dtd">
<svg version="1.0" xmlns="http://www.w3.org/2000/svg"
 width="280.000000pt" height="420.000000pt" viewBox="0 0 280.000000 420.000000"
 preserveAspectRatio="xMidYMid meet">

<g transform="translate(0.000000,420.000000) scale(0.100000,-0.100000)"
fill="#000000" stroke="none">
<path d="M930 3786 l-455 -263 -3 -552 -2 -551 60 0 60 0 0 75 0 75 35 0 c31
0 35 -3 35 -25 0 -23 4 -25 45 -25 l45 0 2 417 3 417 315 182 c173 100 320
179 326 176 6 -4 147 -86 312 -182 l302 -174 0 -366 0 -367 -647 -373 c-357
-206 -703 -406 -770 -445 l-123 -70 0 -530 0 -530 212 -120 c117 -66 215 -120
218 -121 3 0 18 -6 33 -12 19 -8 72 -11 153 -8 77 3 126 0 130 -6 4 -6 10 -5
15 3 6 9 12 10 17 4 11 -15 42 -18 42 -4 0 8 4 8 13 1 25 -20 169 1 146 22 -7
6 -159 95 -434 255 l-260 150 -3 364 -2 364 457 264 c252 145 600 345 773 445
l315 182 0 532 0 533 -405 234 c-223 129 -428 247 -455 263 l-50 29 -455 -263z
m-200 -1186 c0 -27 -3 -30 -30 -30 -27 0 -30 3 -30 30 0 27 3 30 30 30 27 0
30 -3 30 -30z"/>
<path d="M1218 3247 l-158 -92 0 -187 0 -187 115 -65 115 -65 93 -3 92 -3 115
65 115 65 3 192 2 191 -150 87 c-82 48 -158 88 -168 90 -9 2 -88 -38 -174 -88z
m256 -138 l86 -50 0 -93 0 -93 -86 -52 -87 -51 -81 48 -81 48 -2 99 -3 100 83
47 c45 26 83 48 84 48 0 0 40 -23 87 -51z"/>
<path d="M612 2358 l3 -43 48 -3 47 -3 0 45 0 46 -51 0 -50 0 3 -42z"/>
<path d="M530 2250 c0 -27 3 -30 30 -30 27 0 30 3 30 30 0 27 -3 30 -30 30
-27 0 -30 -3 -30 -30z"/>
<path d="M630 2165 c0 -8 9 -15 20 -15 11 0 20 7 20 15 0 8 -9 15 -20 15 -11
0 -20 -7 -20 -15z"/>
<path d="M1682 1930 c-74 -43 -136 -80 -138 -83 -3 -3 93 -61 213 -130 120
-70 226 -132 235 -139 15 -12 18 -53 24 -408 4 -217 8 -397 11 -399 2 -3 25
-4 52 -2 27 1 52 -2 56 -8 3 -6 31 -11 61 -11 l54 0 0 40 c0 39 8 47 43 41 4
0 7 203 7 452 l0 452 -238 138 c-131 75 -240 137 -243 136 -2 0 -64 -36 -137
-79z m566 -1037 l-3 -58 -55 0 c-30 0 -54 3 -52 8 1 4 2 30 2 57 l0 50 55 0
56 0 -3 -57z"/>
<path d="M1217 1466 l-157 -91 2 -188 3 -189 113 -64 112 -65 92 -3 91 -3 118
66 119 66 0 183 c0 100 1 185 3 189 2 9 -313 194 -328 192 -5 -1 -81 -42 -168
-93z m276 -148 l67 -39 0 -94 0 -94 -85 -50 -86 -50 -84 47 -85 47 0 100 0
100 83 46 c66 38 86 45 102 36 11 -5 50 -27 88 -49z"/>
<path d="M2010 608 c0 -57 10 -68 56 -68 l44 0 0 45 0 45 -50 0 c-45 0 -50 -2
-50 -22z"/>
<path d="M2130 481 c0 -35 12 -45 46 -37 19 5 24 13 24 36 0 28 -3 30 -35 30
-32 0 -35 -2 -35 -29z"/>
<path d="M2060 395 c0 -8 9 -15 20 -15 11 0 20 7 20 15 0 8 -9 15 -20 15 -11
0 -20 -7 -20 -15z"/>
</g>
</svg>
